<?xml version="1.0" encoding="UTF-8" standalone="no"?>
<!-- Created with Inkscape (http://www.inkscape.org/) -->

<svg
   width="1023.9999"
   height="1023.9999"
   viewBox="0 0 270.93333 270.93333"
   version="1.1"
   id="svg1"
   xml:space="preserve"
   xmlns:xlink="http://www.w3.org/1999/xlink"
   xmlns="http://www.w3.org/2000/svg"
   xmlns:svg="http://www.w3.org/2000/svg"><defs
     id="defs1" /><g
     id="layer2"><g
       id="g11"
       transform="matrix(1.2371615,0,0,1.1864721,6.131409,-1.9270125)"
       style="fill:#ff7a00;fill-opacity:1"><path
         id="path7"
         style="baseline-shift:baseline;display:inline;overflow:visible;vector-effect:none;fill:#ff7a00;fill-opacity:1;stroke-linejoin:bevel;paint-order:markers stroke fill;enable-background:accumulate;stop-color:#000000"
         d="m 114.05978,71.592828 -5.1543,6.033203 69.13672,59.054689 5.1543,-6.03321 z M 89.059779,69.419 l -0.107421,8.080078 85.283202,1.148437 0.10937,-8.078125 z M 115.81759,40.754937 71.606654,86.963921 71.376186,46.932672 l -7.935547,0.04492 0.289062,49.835938 6.833985,2.7207 50.988284,-53.292966 z m -89.394529,37.009766 -5.802735,6.187498 65.015625,60.960939 5.802735,-6.1875 z m 107.892579,33.792967 -27.36719,27.36719 5.61133,5.61133 20.48242,-20.48243 -0.46484,40.96485 7.93554,0.0898 0.57617,-50.69922 z m -23.44141,25.33203 -81.804685,0.28711 0.02734,7.97461 72.380865,-0.25586 -22.863287,23.72852 5.742187,5.5332 29.4043,-30.51563 z M 101.41329,36.938531 C 39.035145,36.775393 0.3039202,105.47564 0.3039202,105.47564 c -0.51885286,10.64226 19.7888138,33.92282 24.5195308,38.88672 16.281805,17.08436 41.197809,34.24561 75.111331,34.46289 68.710868,0.44022 102.566398,-72.76758 102.566398,-72.76758 0,0 -38.70683,-68.955993 -101.08789,-69.119139 z m -0.0215,7.933594 c 53.98697,0.141193 89.95256,58.221915 93.04492,63.365235 -5.154,9.50282 -36.70853,63.02424 -94.451168,62.65429 C 68.714906,170.69131 45.90406,154.9802 30.567572,138.88775 17.498501,125.17448 10.435427,111.99745 8.3175721,107.74126 11.301762,102.79127 47.31276,44.730692 101.39179,44.872125 Z" /><g
         id="path8"
         style="fill:#ff7a00;fill-opacity:1;stroke:none"
         transform="translate(-4.6091196,-19.588746)"><path
           style="baseline-shift:baseline;display:inline;overflow:visible;vector-effect:none;fill:#ff7a00;fill-opacity:1;stroke:none;stroke-linejoin:bevel;paint-order:markers stroke fill;enable-background:accumulate;stop-color:#000000;stop-opacity:1"
           d="m 105.14453,103.19531 c -13.480029,0 -24.70703,10.46579 -24.70703,23.55469 0,13.0889 11.227001,23.55664 24.70703,23.55664 13.48003,0 24.70899,-10.46774 24.70899,-23.55664 0,-13.0889 -11.22896,-23.55469 -24.70899,-23.55469 z m 0,7.9336 c 9.42988,0 16.77539,7.07285 16.77539,15.62109 0,8.54824 -7.34551,15.62109 -16.77539,15.62109 -9.429875,0 -16.773436,-7.07285 -16.773436,-15.62109 0,-8.54824 7.343561,-15.62109 16.773436,-15.62109 z"
           id="path9" /><path
           style="baseline-shift:baseline;display:inline;overflow:visible;vector-effect:none;fill:#ff7a00;fill-opacity:1;stroke:none;stroke-linejoin:bevel;paint-order:markers stroke fill;enable-background:accumulate;stop-color:#000000;stop-opacity:1"
           d="m 125.88652,126.75072 a 20.741028,19.588749 0 0 1 -20.74103,19.58875 20.741028,19.588749 0 0 1 -20.741025,-19.58875 20.741028,19.588749 0 0 1 20.741025,-19.58875 20.741028,19.588749 0 0 1 20.74103,19.58875 z"
           id="path10" /></g></g></g></svg>
